<?xml version="1.0" encoding="UTF-8" standalone="no"?><!-- Generator: Gravit.io --><svg xmlns="http://www.w3.org/2000/svg" xmlns:xlink="http://www.w3.org/1999/xlink" style="isolation:isolate" viewBox="176.175 624.741 22.852 91.259" width="22.852" height="91.259"><path d=" M 179.831 660.909 C 181.238 661.05 181.378 660.909 182.536 660.168 Q 183.694 659.426 183.579 659.125 L 183.579 712.08 C 183.579 714.241 185.338 716 187.499 716 C 189.661 716 191.419 714.241 191.419 712.08 L 191.419 659.125 Q 192.488 659.925 193.191 660.347 C 193.894 660.769 194.878 660.909 195.863 660.769 C 196.847 660.628 197.302 660.454 198.042 659.714 C 198.783 658.974 199.027 657.948 199.027 656.902 C 199.027 655.855 198.717 655.022 198.464 654.019 Q 198.211 653.016 190.271 625.889 C 189.729 625.347 189.048 624.979 188.302 624.824 C 188.297 624.823 188.292 624.822 188.287 624.821 C 188.176 624.798 188.063 624.782 187.946 624.768 C 187.931 624.766 187.915 624.763 187.895 624.761 C 187.629 624.734 187.371 624.734 187.1 624.761 C 187.084 624.763 187.068 624.766 187.047 624.769 C 186.934 624.782 186.822 624.798 186.703 624.823 C 185.954 624.977 185.271 625.346 184.727 625.889 Q 176.93 653.016 176.597 654.019 C 176.264 655.022 176.175 656.346 176.175 657.394 C 176.175 658.442 176.911 659.114 177.652 659.855 C 178.392 660.595 178.425 660.769 179.831 660.909 Z " fill="rgb(103,141,166)"/></svg>